<?xml version="1.0" encoding="UTF-8"?>
<svg width="58px" height="51px" viewBox="0 0 58 51" version="1.1" xmlns="http://www.w3.org/2000/svg" xmlns:xlink="http://www.w3.org/1999/xlink">
    <!-- Generator: sketchtool 55.2 (78181) - https://sketchapp.com -->
    <title>F19B61EF-74D6-48D9-92C6-0388536AD986</title>
    <desc>Created with sketchtool.</desc>
    <g id="HP" stroke="none" stroke-width="1" fill="none" fill-rule="evenodd" opacity="0.25">
        <g id="HP-PC-Over" transform="translate(-908.000000, -473.000000)" fill="#FFFFFF" fill-rule="nonzero">
            <g id="Group-6" transform="translate(900.000000, 460.000000)">
                <g id="hexagon-copy" transform="translate(37.350137, 38.402427) scale(1, -1) rotate(-30.000000) translate(-37.350137, -38.402427) translate(11.850137, 9.402427)">
                    <path d="M49.9763032,14.6921698 L25.9422465,0.495762006 C25.5897827,0.287584995 25.1594229,0.287584995 24.8069592,0.495762006 L0.7729024,14.6921698 C0.415824985,14.9027868 0.196085038,15.2955171 0.196085038,15.7190802 L0.196085038,41.7458648 C0.196085038,42.1694279 0.415824985,42.5621583 0.7729024,42.7727753 L24.8069592,56.969183 C24.9832447,57.073327 25.1777703,57.1253435 25.3746565,57.1253435 C25.5715426,57.1253435 25.7660682,57.073327 25.9423538,56.969183 L49.9764105,42.7727753 C50.3334879,42.5621583 50.5532279,42.1694279 50.5532279,41.7458648 L50.5532279,15.7190802 C50.5532279,15.2955171 50.3333807,14.9027868 49.9763032,14.6921698 Z" id="Path"></path>
                </g>
            </g>
        </g>
    </g>
</svg>